<?xml version="1.0" standalone="no"?>
<!DOCTYPE svg PUBLIC "-//W3C//DTD SVG 20010904//EN"
 "http://www.w3.org/TR/2001/REC-SVG-20010904/DTD/svg10.dtd">
<svg version="1.0" xmlns="http://www.w3.org/2000/svg"
 width="800.000000pt" height="800.000000pt" viewBox="0 0 800.000000 800.000000"
 preserveAspectRatio="xMidYMid meet">
<metadata>
Created by potrace 1.14, written by Peter Selinger 2001-2017
</metadata>
<g transform="translate(0.000000,800.000000) scale(0.100000,-0.100000)"
fill="#000000" stroke="none">
<path d="M3370 4000 c0 -1363 0 -1370 20 -1370 20 0 20 7 20 1370 0 1363 0
1370 -20 1370 -20 0 -20 -7 -20 -1370z"/>
<path d="M2283 5013 c-9 -3 -13 -33 -13 -97 l0 -92 -35 -2 c-20 -2 -46 -7 -59
-12 -37 -14 -95 -69 -119 -114 -22 -41 -22 -41 -22 -696 l0 -655 22 -41 c32
-61 95 -111 156 -124 55 -11 497 -13 497 -2 0 4 -10 14 -22 22 -18 12 -72 16
-254 20 l-231 5 -41 29 c-23 16 -50 46 -62 70 -19 41 -20 59 -20 676 0 617 1
635 20 676 29 59 84 94 159 101 l61 6 0 93 0 94 245 0 245 0 0 -45 c0 -49 1
-50 31 -35 15 9 19 22 19 70 l0 59 -282 0 c-156 0 -289 -3 -295 -6z"/>
<path d="M4435 4916 c-39 -18 -74 -51 -86 -83 -5 -13 -9 -121 -9 -239 0 -231
3 -245 54 -293 19 -18 41 -26 79 -29 60 -5 96 9 137 53 25 27 25 27 28 261 3
224 2 237 -18 269 -22 36 -91 75 -131 75 -13 -1 -37 -7 -54 -14z m86 -96 c18
-10 19 -23 19 -218 0 -149 -3 -211 -12 -220 -20 -20 -76 -15 -88 7 -6 12 -10
99 -10 212 0 165 2 195 17 211 18 20 45 23 74 8z"/>
<path d="M5171 4909 c-80 -41 -82 -50 -79 -321 l3 -236 25 -27 c75 -80 196
-72 250 17 18 30 20 51 20 257 0 215 -1 226 -22 257 -46 67 -126 89 -197 53z
m103 -95 c14 -13 16 -47 16 -218 0 -217 -2 -226 -51 -226 -56 0 -59 13 -59
227 0 169 2 199 17 215 20 22 56 23 77 2z"/>
<path d="M3552 4598 l3 -322 35 1 c19 0 41 1 48 2 9 1 12 32 12 121 l0 120 45
0 c110 0 165 66 165 200 0 154 -50 199 -218 200 l-92 0 2 -322z m197 208 c7
-8 13 -46 14 -86 2 -65 0 -74 -22 -91 -13 -10 -38 -19 -57 -19 l-34 0 0 105 0
105 44 0 c25 0 48 -6 55 -14z"/>
<path d="M3940 4601 c0 -338 0 -335 46 -326 11 2 25 4 32 4 9 1 12 35 12 136
l0 135 60 0 59 0 3 -137 3 -138 45 0 45 0 3 323 2 322 -50 0 -50 0 0 -140 0
-141 -57 3 -58 3 -3 138 -3 137 -44 0 -45 0 0 -319z"/>
<path d="M4712 4873 l3 -48 53 -3 52 -3 0 -269 c0 -179 4 -271 11 -275 6 -4
26 -4 45 -1 l34 7 0 269 0 269 52 3 c50 3 52 4 54 33 5 66 8 65 -157 65 l-150
0 3 -47z"/>
<path d="M3075 4895 c-198 -36 -353 -122 -498 -275 -332 -350 -332 -890 2
-1242 159 -168 348 -262 570 -284 71 -7 71 -7 71 18 0 24 -4 26 -89 37 -297
41 -545 223 -671 494 -59 128 -74 201 -74 357 0 156 15 229 74 357 126 271
374 453 671 494 83 11 89 13 89 35 0 21 -5 24 -37 23 -21 0 -69 -7 -108 -14z"/>
<path d="M3054 4710 c-349 -91 -589 -442 -544 -793 32 -250 180 -461 404 -574
116 -58 306 -95 306 -59 0 9 -20 15 -68 19 -139 11 -314 99 -418 209 -148 156
-221 371 -194 571 22 157 78 277 183 393 109 119 283 209 429 221 48 4 68 10
68 19 0 20 -79 17 -166 -6z"/>
<path d="M3115 4635 c-244 -54 -431 -225 -501 -460 -25 -83 -25 -267 0 -350
72 -241 281 -426 524 -464 39 -6 73 -11 76 -11 3 0 6 112 6 249 0 241 -1 250
-20 256 -55 18 -110 90 -110 145 0 55 55 127 110 145 19 6 20 15 20 181 0 133
-3 174 -12 174 -7 0 -43 -7 -81 -15 -184 -39 -336 -188 -377 -370 -12 -56 -34
-85 -62 -85 -33 0 -41 39 -23 110 52 200 206 364 395 420 36 10 86 21 113 25
44 6 47 8 47 36 0 34 -10 35 -105 14z"/>
<path d="M3655 4145 c-46 -16 -81 -54 -96 -105 -7 -21 -9 -112 -7 -235 3 -189
4 -202 26 -238 30 -47 68 -67 130 -67 60 0 109 30 134 80 14 28 18 61 18 163
l0 127 -75 0 -75 0 0 -45 c0 -42 2 -45 25 -45 26 0 26 0 23 -82 -3 -77 -5 -83
-29 -97 -24 -13 -29 -13 -53 2 l-26 17 0 204 c0 184 2 204 18 219 45 41 92 7
92 -66 l0 -47 51 0 51 0 -4 65 c-8 121 -97 187 -203 150z"/>
<path d="M3950 3826 l0 -326 45 0 44 0 3 123 3 122 31 3 31 3 22 -88 c45 -181
35 -163 91 -163 28 0 50 3 50 8 0 4 -16 67 -35 140 l-34 134 22 30 c18 24 23
46 26 121 4 111 -9 158 -52 189 -27 20 -47 23 -139 27 l-108 3 0 -326z m194
208 c12 -11 16 -35 16 -85 0 -85 -18 -109 -80 -109 l-40 0 0 105 0 105 44 0
c27 0 51 -6 60 -16z"/>
<path d="M4460 4142 c0 -4 -22 -140 -50 -302 -27 -162 -50 -305 -50 -317 0
-20 5 -23 45 -23 49 0 47 -3 63 95 l7 50 52 3 c57 3 54 8 69 -100 l6 -48 49 0
c27 0 49 3 49 8 1 4 -23 150 -52 325 l-53 317 -67 0 c-38 0 -68 -3 -68 -8z
m90 -286 c11 -83 11 -99 -1 -107 -17 -10 -54 -5 -54 7 1 46 30 223 35 212 4
-7 13 -57 20 -112z"/>
<path d="M4790 3825 l0 -325 45 0 44 0 3 123 3 122 55 5 c64 6 103 27 130 73
16 26 20 50 20 128 0 83 -3 101 -23 130 -35 53 -77 69 -184 69 l-93 0 0 -325z
m192 208 c14 -13 18 -31 18 -85 0 -84 -20 -111 -78 -106 l-37 3 -3 103 -3 102
42 0 c25 0 50 -7 61 -17z"/>
<path d="M5170 3825 l0 -325 50 0 50 0 0 140 0 141 58 -3 57 -3 3 -137 3 -138
44 0 45 0 0 325 0 325 -45 0 -44 0 -3 -137 -3 -138 -57 -3 -58 -3 0 141 0 140
-50 0 -50 0 0 -325z"/>
<path d="M5624 3978 l60 -173 6 -150 5 -150 48 -3 47 -3 0 139 0 138 65 187
65 187 -54 0 -53 0 -35 -117 -36 -118 -37 118 -37 117 -52 0 -53 0 61 -172z"/>
<path d="M3816 3329 c-9 -13 -16 -27 -16 -31 0 -6 -55 -130 -67 -150 -2 -5 0
-8 5 -8 5 0 14 11 20 25 11 23 17 25 75 25 59 0 65 -2 76 -26 6 -15 14 -24 16
-22 5 5 -72 187 -85 201 -4 5 -15 -2 -24 -14z m53 -81 l20 -48 -54 0 c-30 0
-55 4 -55 9 0 5 12 35 26 67 22 50 28 56 34 39 4 -11 17 -41 29 -67z"/>
<path d="M4008 3321 c-28 -25 -33 -36 -33 -73 0 -59 25 -95 75 -108 31 -8 47
-7 75 4 32 14 35 19 35 54 0 33 -4 41 -22 46 -35 9 -68 7 -68 -4 0 -5 19 -10
41 -10 41 0 41 0 35 -32 -8 -39 -20 -48 -69 -48 -52 0 -87 35 -87 88 0 75 67
120 130 89 16 -9 30 -12 30 -8 0 12 -48 31 -80 31 -19 0 -42 -11 -62 -29z"/>
<path d="M4242 3248 l-2 -108 68 2 67 2 -62 3 -62 4 -4 102 -3 102 -2 -107z"/>
<path d="M4776 3342 c-5 -8 -8 -75 -7 -149 l1 -53 73 2 72 2 -68 3 -68 4 3 42
3 42 60 6 60 6 -62 1 -63 2 0 40 0 40 65 0 c37 0 65 4 65 10 0 12 -126 14
-134 2z"/>
<path d="M5340 3245 l0 -105 73 2 72 2 -68 3 -68 4 3 42 3 42 60 6 60 6 -62 1
-63 2 0 40 0 40 65 0 c37 0 65 4 65 10 0 6 -30 10 -70 10 l-70 0 0 -105z"/>
<path d="M5550 3245 c0 -68 4 -105 11 -105 6 0 9 15 7 38 -5 55 27 56 87 1 50
-46 73 -50 25 -4 -33 32 -38 45 -16 45 8 0 22 10 30 22 40 57 -2 108 -90 108
l-54 0 0 -105z m136 60 c15 -23 15 -27 0 -50 -14 -21 -24 -25 -65 -25 l-49 0
-4 39 c-5 57 -2 61 53 61 41 0 51 -4 65 -25z"/>
<path d="M5780 3244 l0 -104 73 2 72 2 -68 3 -68 4 3 42 3 42 65 6 65 6 -67 1
-68 2 0 40 0 40 65 0 c36 0 65 4 65 10 0 5 -31 9 -70 9 l-70 -1 0 -104z"/>
<path d="M3557 3333 l42 -4 4 -97 3 -97 2 97 2 97 43 4 c23 2 2 4 -48 4 -49 0
-71 -2 -48 -4z"/>
<path d="M4431 3238 c1 -81 3 -96 10 -68 10 41 8 170 -3 170 -5 0 -8 -46 -7
-102z"/>
<path d="M4522 3241 c0 -122 17 -136 20 -16 0 47 1 90 2 97 1 6 -4 13 -11 15
-9 3 -12 -23 -11 -96z"/>
<path d="M4668 3259 l-3 -81 -53 67 c-30 37 -56 64 -59 61 -6 -5 30 -52 101
-131 l35 -40 1 103 c0 121 -18 139 -22 21z"/>
<path d="M5090 3240 c0 -60 4 -100 10 -100 6 0 10 20 10 45 l0 45 65 0 c64 0
65 0 66 -27 1 -16 1 -36 0 -45 -1 -10 3 -18 8 -18 7 0 11 36 11 100 0 60 -4
100 -10 100 -5 0 -10 -22 -10 -49 0 -44 -2 -48 -22 -46 -13 1 -42 3 -65 4
l-43 1 0 45 c0 25 -4 45 -10 45 -6 0 -10 -40 -10 -100z"/>
</g>
</svg>
